<?xml version="1.0" encoding="UTF-8"?>
<svg version="1.1" xmlns="http://www.w3.org/2000/svg" width="2048" height="1365">
<path d="M0 0 C675.84 0 1351.68 0 2048 0 C2048 450.45 2048 900.9 2048 1365 C1372.16 1365 696.32 1365 0 1365 C0 914.55 0 464.1 0 0 Z " fill="#FEFEFE" transform="translate(0,0)"/>
<path d="M0 0 C162.36 0 324.72 0 492 0 C494.97 8.91 497.94 17.82 501 27 C509.18267535 45.90480167 518.03878879 64.18144413 530 81 C530.49483887 81.70237793 530.98967773 82.40475586 531.49951172 83.12841797 C538.92618667 93.62668669 546.71528746 103.35866825 555.66210938 112.59277344 C557.41450554 114.43598721 559.05288957 116.36471655 560.6875 118.3125 C564.73071541 122.97850898 569.34088546 126.96341131 574 131 C574.96808594 131.8559375 575.93617188 132.711875 576.93359375 133.59375 C595.79045774 150.0901403 617.34373229 163.38994966 640 174 C641.78083984 174.85464844 641.78083984 174.85464844 643.59765625 175.7265625 C708.97610194 206.28179664 787.80690177 207.22369556 855.32421875 183.4765625 C879.9830332 174.49209275 902.81430677 162.48007944 924 147 C924.57685547 146.58008789 925.15371094 146.16017578 925.74804688 145.72753906 C932.94303028 140.44874539 939.66247838 134.75585568 946.1640625 128.6484375 C948.75325534 126.23043096 951.39511697 123.89330473 954.0625 121.5625 C964.21938447 112.41156894 972.81676049 101.91098601 981 91 C981.47550293 90.37029297 981.95100586 89.74058594 982.44091797 89.09179688 C1002.4173532 62.42095318 1016.86081766 31.98713819 1026 0 C1088.04 0 1150.08 0 1214 0 C1214 175.23 1214 350.46 1214 531 C813.38 531 412.76 531 0 531 C0 355.77 0 180.54 0 0 Z " fill="#102F44" transform="translate(834,834)"/>
<path d="M0 0 C400.62 0 801.24 0 1214 0 C1214 175.23 1214 350.46 1214 531 C1155.92 531 1097.84 531 1038 531 C1037.6875 482.5 1037.6875 482.5 1037.61206055 467.21679688 C1037.57547274 462.67436046 1037.57547274 462.67436046 1037.5349884 458.13195801 C1037.51889641 456.11734542 1037.50856924 454.10268153 1037.50288391 452.0880127 C1037.49310399 449.02649738 1037.46471879 445.96564623 1037.43237305 442.90429688 C1037.43451199 441.5703249 1037.43451199 441.5703249 1037.43669415 440.20940399 C1037.33495426 433.43801647 1036.11304335 427.97925988 1032.11328125 422.33984375 C1027.25850501 418.69114743 1021.82168241 416.74996127 1016.1875 414.5625 C1015.05634766 414.11068359 1013.92519531 413.65886719 1012.75976562 413.19335938 C1007.36352608 411.05006423 1001.94569192 408.97290807 996.50119019 406.95544434 C985.09433059 402.72468781 973.83537731 398.13592495 962.5625 393.5625 C960.27507724 392.636325 957.98755866 391.71038661 955.69995117 390.78466797 C950.89798616 388.84136935 946.09635792 386.89724189 941.29492188 384.95263672 C929.47192071 380.16568134 917.6418404 375.39626237 905.8125 370.625 C901.02599215 368.69413314 896.23954703 366.76311083 891.453125 364.83203125 C890.26307861 364.35192596 889.07303223 363.87182068 887.84692383 363.37716675 C879.39187273 359.96583177 870.9379348 356.55174734 862.484375 353.13671875 C849.50218949 347.8925475 836.51723257 342.65527981 823.53033447 337.42279053 C819.92794566 335.97096076 816.32600889 334.51801366 812.72412109 333.06494141 C806.84401733 330.69335717 800.96200837 328.3265571 795.07858276 325.96322632 C792.87885966 325.07884772 790.67973083 324.1929894 788.48123169 323.30557251 C785.46306972 322.08764926 782.44277888 320.87516564 779.421875 319.6640625 C778.53513596 319.30484207 777.64839691 318.94562164 776.73478699 318.57551575 C757.76543452 311.00076691 741.84195498 318.04900646 724.04977417 325.36358643 C721.34127676 326.47705765 718.6301033 327.58378462 715.91821289 328.68896484 C711.9863664 330.29156541 708.05544545 331.89640811 704.125 333.50244141 C694.81839376 337.30142425 685.49517078 341.05928903 676.17294312 344.81973267 C671.78432464 346.59022287 667.39629298 348.3621652 663.00822449 350.13401794 C652.73896784 354.2804697 642.46908007 358.42535865 632.19921875 362.5703125 C631.04566391 363.03589569 629.89210907 363.50147888 628.70359802 363.98117065 C622.81792057 366.35652774 616.93199892 368.73127714 611.0456543 371.10498047 C599.62257781 375.71169111 588.20092683 380.32179952 576.78427124 384.94439697 C571.95416294 386.90000747 567.12317156 388.8534324 562.29197884 390.80636215 C559.00177366 392.13653225 555.71200434 393.46775423 552.42340088 394.80187988 C529.97490763 403.90793417 529.97490763 403.90793417 519.15039062 407.96679688 C518.500294 408.21094707 517.85019737 408.45509727 517.18040085 408.70664597 C514.08294487 409.86814882 510.98275526 411.02045639 507.87701416 412.159729 C493.90646135 416.52722275 493.90646135 416.52722275 483.3125 425.625 C470.5752864 458.37783497 480.35857675 495.85947878 480 531 C321.6 531 163.2 531 0 531 C0 355.77 0 180.54 0 0 Z " fill="#102F44" transform="translate(834,0)"/>
<path d="M0 0 C0.68674805 0.36947754 1.37349609 0.73895508 2.08105469 1.11962891 C6.74005052 3.49224831 11.6596285 5.29211838 16.51965332 7.20907593 C20.37057169 8.72872159 24.21614178 10.26182624 28.0625 11.79296875 C28.93237549 12.138936 29.80225098 12.48490326 30.69848633 12.84135437 C43.05983053 17.76218197 55.39524331 22.74769425 67.73344421 27.72618484 C69.7710127 28.54829471 71.80865127 29.37023062 73.84631348 30.19210815 C90.69525786 36.98805065 107.5406827 43.79265381 124.3828125 50.60546875 C143.88455835 58.49396784 163.39515888 66.36043821 182.90805817 74.22129822 C185.20142973 75.14525322 187.49473713 76.06936732 189.7880249 76.99353027 C205.7428082 83.42280361 221.70147071 89.84237146 237.67011261 96.23715782 C239.22757147 96.86093536 240.78492078 97.4849865 242.34215546 98.1093235 C244.49370457 98.97178916 246.64570779 99.83311128 248.79785156 100.6940918 C249.43594002 100.95008085 250.07402847 101.20606991 250.73145294 101.46981621 C253.30823442 102.49937557 255.87438787 103.47766054 258.5078125 104.35546875 C258.53079081 143.39628886 258.54836727 182.43710807 258.55887783 221.47793361 C258.56012827 226.10573179 258.56142262 230.73352996 258.56274414 235.36132812 C258.56300645 236.28249076 258.56326876 237.2036534 258.56353902 238.15273006 C258.56786923 252.99307399 258.57574195 267.83341397 258.5849653 282.67375557 C258.59437598 297.94490709 258.59988366 313.21605657 258.60190099 328.48721087 C258.60326096 337.88114244 258.6075274 347.27506286 258.61572897 356.66899098 C258.6210883 363.14440417 258.62259637 369.61981175 258.62131388 376.09522699 C258.62068455 379.80973542 258.62152268 383.52422463 258.62701797 387.23872948 C258.64746033 401.89706635 258.55580869 416.54877918 258.17145728 431.20233996 C258.13405182 432.63590328 258.09865698 434.06952094 258.06558604 435.5031908 C257.59143397 455.43879376 254.94821811 475.1540372 249.5078125 494.35546875 C249.02332128 496.37503215 248.54391979 498.39582528 248.0703125 500.41796875 C245.5460579 510.46040868 242.27674804 520.24482882 237.81640625 529.59765625 C236.7092592 531.93092735 235.65849734 534.27600754 234.62109375 536.640625 C228.95866686 549.40250912 222.12080162 561.30108303 214.3828125 572.91796875 C213.72635742 573.90418213 213.06990234 574.89039551 212.39355469 575.90649414 C208.058664 582.31198226 203.43857176 588.39821506 198.5078125 594.35546875 C197.97768555 594.99734131 197.44755859 595.63921387 196.90136719 596.30053711 C185.61155164 609.8176329 173.51721064 622.62687179 159.5078125 633.35546875 C158.34235998 634.27332586 157.17700133 635.19130216 156.01171875 636.109375 C140.92400703 647.84447709 124.20592138 659.03191834 106.54248047 666.49414062 C104.22773819 667.47403153 101.92255062 668.47480887 99.6171875 669.4765625 C97.83075361 670.24875447 96.04429478 671.02088874 94.2578125 671.79296875 C93.37996094 672.17517578 92.50210937 672.55738281 91.59765625 672.95117188 C75.67335262 679.81750777 59.41228907 683.76378042 42.5078125 687.35546875 C41.45158691 687.58862793 40.39536133 687.82178711 39.30712891 688.06201172 C22.93370766 691.556553 6.55725314 691.76739128 -10.1171875 691.85546875 C-11.18512543 691.86609344 -12.25306335 691.87671814 -13.35336304 691.88766479 C-31.14096404 692.02309081 -48.07566155 689.86764447 -65.4921875 686.35546875 C-65.4921875 685.69546875 -65.4921875 685.03546875 -65.4921875 684.35546875 C-67.25369141 684.13503906 -67.25369141 684.13503906 -69.05078125 683.91015625 C-79.197732 682.53332768 -88.39932072 680.34709414 -97.953125 676.66015625 C-100.84104147 675.59551596 -103.46471416 674.83472129 -106.4921875 674.35546875 C-106.8221875 673.36546875 -107.1521875 672.37546875 -107.4921875 671.35546875 C-110.4398764 670.27458694 -110.4398764 670.27458694 -113.9921875 669.48046875 C-119.40733787 668.05223663 -123.8915106 666.38079684 -128.625 663.40625 C-130.45394599 662.24484964 -130.45394599 662.24484964 -132.609375 661.9609375 C-133.54136719 661.66123047 -133.54136719 661.66123047 -134.4921875 661.35546875 C-134.75386719 660.77023437 -135.01554687 660.185 -135.28515625 659.58203125 C-137.18999023 656.06825984 -140.40389668 654.67563032 -143.8046875 652.73046875 C-144.46919922 652.33601562 -145.13371094 651.9415625 -145.81835938 651.53515625 C-148.53560457 649.94404927 -151.11769894 648.49618566 -154.0703125 647.38671875 C-157.43831887 645.95259991 -160.10531938 643.76207149 -162.9296875 641.48046875 C-163.54384521 640.98853027 -164.15800293 640.4965918 -164.79077148 639.98974609 C-166.69811421 638.45325527 -168.59565887 636.90527737 -170.4921875 635.35546875 C-171.04551758 634.90945313 -171.59884766 634.4634375 -172.16894531 634.00390625 C-188.61729684 620.6937926 -204.11269935 605.54574627 -216.4921875 588.35546875 C-217.32038768 587.2438765 -218.14983417 586.13321183 -218.98046875 585.0234375 C-223.83431154 578.46350379 -228.27114794 571.67516424 -232.5546875 564.73046875 C-233.03228516 563.95993164 -233.50988281 563.18939453 -234.00195312 562.39550781 C-234.44345703 561.6681543 -234.88496094 560.94080078 -235.33984375 560.19140625 C-235.73179932 559.5473584 -236.12375488 558.90331055 -236.52758789 558.23974609 C-237.5249718 556.29142694 -238.04849793 554.49241052 -238.4921875 552.35546875 C-239.1521875 552.35546875 -239.8121875 552.35546875 -240.4921875 552.35546875 C-246.61513607 540.46624824 -246.61513607 540.46624824 -248.67358398 534.4987793 C-249.57055229 532.15028997 -250.65596959 529.94909774 -251.76171875 527.69140625 C-254.91991407 520.78460775 -256.94608244 513.63932195 -258.97705078 506.34106445 C-259.61397962 504.05448507 -260.26484698 501.77223498 -260.91796875 499.49023438 C-267.26959791 477.10298765 -270.31845203 455.24998542 -271.04759216 431.98472595 C-271.06858286 431.32443604 -271.08957355 430.66414613 -271.11120033 429.98384743 C-271.57423202 415.14531878 -271.63011777 400.30941014 -271.60825312 385.46456468 C-271.60382616 381.67025491 -271.60540347 377.87594616 -271.6061554 374.08163452 C-271.60667308 367.54838709 -271.60360664 361.01514985 -271.59791756 354.48190498 C-271.58969815 345.03659342 -271.5871768 335.59128664 -271.58592957 326.14597189 C-271.5837552 310.81174867 -271.57713952 295.47753085 -271.56762695 280.14331055 C-271.55841063 265.27091498 -271.55135059 250.3985209 -271.54711914 235.52612305 C-271.54685642 234.60531185 -271.54659369 233.68450065 -271.54632301 232.73578609 C-271.54501772 228.1151296 -271.54375407 223.49447311 -271.54251111 218.87381661 C-271.53218892 180.70103021 -271.5146153 142.52824984 -271.4921875 104.35546875 C-270.41418381 103.95751099 -269.33618011 103.55955322 -268.22550964 103.14953613 C-266.78595245 102.61479422 -265.34644608 102.07991551 -263.90698242 101.54492188 C-263.19946587 101.28414856 -262.49194931 101.02337524 -261.76299286 100.75469971 C-256.26983745 98.70847587 -250.9847743 96.33195664 -245.68603516 93.82421875 C-240.11338704 91.2615333 -234.39734481 89.07062042 -228.6796875 86.85546875 C-227.45644775 86.37770996 -226.23320801 85.89995117 -224.97290039 85.40771484 C-217.37199579 82.44674213 -209.75289776 79.54429043 -202.08203125 76.76953125 C-199.15461085 75.61640156 -196.33052129 74.38053866 -193.4765625 73.0625 C-186.68214148 69.94131827 -179.7512139 67.17734204 -172.8046875 64.41796875 C-171.4672557 63.88418838 -170.12985356 63.35033369 -168.79248047 62.81640625 C-160.81097278 59.6367426 -152.80648778 56.53714885 -144.71875 53.63671875 C-142.31862716 52.68364334 -140.14932091 51.69168699 -137.87109375 50.5078125 C-132.36409492 47.69631693 -126.58260145 45.60014215 -120.8046875 43.41796875 C-119.70962891 43.00095703 -118.61457031 42.58394531 -117.48632812 42.15429688 C-113.04361904 40.46245887 -108.60071021 38.7715089 -104.14990234 37.10107422 C-99.09474921 35.18829337 -94.10631259 33.22591212 -89.203125 30.94921875 C-81.97055506 27.59619828 -74.54040374 24.75327491 -67.1171875 21.85546875 C-65.6873978 21.29453126 -64.2577098 20.73333448 -62.828125 20.171875 C-55.32119602 17.22698655 -47.80343177 14.3138751 -40.26416016 11.45263672 C-37.54635715 10.37690951 -34.8946087 9.20763679 -32.2421875 7.98046875 C-27.41969323 5.75743384 -22.5672546 3.61835324 -17.6796875 1.54296875 C-16.60315918 1.07141357 -16.60315918 1.07141357 -15.50488281 0.59033203 C-9.75126387 -1.82511499 -5.90671368 -2.78157322 0 0 Z " fill="#112F43" transform="translate(1599.4921875,328.64453125)"/>
<path d="M0 0 C175.23 0 350.46 0 531 0 C531 175.23 531 350.46 531 531 C355.77 531 180.54 531 0 531 C0 355.77 0 180.54 0 0 Z " fill="#102F44" transform="translate(0,834)"/>
<path d="M0 0 C175.23 0 350.46 0 531 0 C531 175.23 531 350.46 531 531 C355.77 531 180.54 531 0 531 C0 355.77 0 180.54 0 0 Z " fill="#102F44" transform="translate(0,0)"/>
<path d="M0 0 C199.98 0 399.96 0 606 0 C606 199.98 606 399.96 606 606 C581.25 606 556.5 606 531 606 C531 430.77 531 255.54 531 75 C355.77 75 180.54 75 0 75 C0 50.25 0 25.5 0 0 Z " fill="#D2AB3D" transform="translate(0,759)"/>
<path d="M0 0 C24.75 0 49.5 0 75 0 C75 199.98 75 399.96 75 606 C-124.98 606 -324.96 606 -531 606 C-531 581.25 -531 556.5 -531 531 C-355.77 531 -180.54 531 0 531 C0 355.77 0 180.54 0 0 Z " fill="#D2AB3D" transform="translate(531,0)"/>
<path d="M0 0 C183.15 0 366.3 0 555 0 C555.72036291 3.60181455 556.18355048 6.71462347 556.39453125 10.33203125 C557.6675797 30.20676452 560.381868 49.51586247 565.265625 68.83203125 C566 72 566 72 566 75 C403.97 75 241.94 75 75 75 C75 250.23 75 425.46 75 606 C50.25 606 25.5 606 0 606 C0 406.02 0 206.04 0 0 Z " fill="#D2AB3D" transform="translate(759,759)"/>
<path d="M0 0 C24.75 0 49.5 0 75 0 C75 175.23 75 350.46 75 531 C233.4 531 391.8 531 555 531 C555 555.75 555 580.5 555 606 C371.85 606 188.7 606 0 606 C0 406.02 0 206.04 0 0 Z " fill="#D2AB3D" transform="translate(759,0)"/>
<path d="M0 0 C0.68674805 0.36947754 1.37349609 0.73895508 2.08105469 1.11962891 C6.74005052 3.49224831 11.6596285 5.29211838 16.51965332 7.20907593 C20.37057169 8.72872159 24.21614178 10.26182624 28.0625 11.79296875 C28.93237549 12.138936 29.80225098 12.48490326 30.69848633 12.84135437 C43.05983053 17.76218197 55.39524331 22.74769425 67.73344421 27.72618484 C69.7710127 28.54829471 71.80865127 29.37023062 73.84631348 30.19210815 C90.69525786 36.98805065 107.5406827 43.79265381 124.3828125 50.60546875 C143.88455835 58.49396784 163.39515888 66.36043821 182.90805817 74.22129822 C185.20142973 75.14525322 187.49473713 76.06936732 189.7880249 76.99353027 C205.7428082 83.42280361 221.70147071 89.84237146 237.67011261 96.23715782 C239.22757147 96.86093536 240.78492078 97.4849865 242.34215546 98.1093235 C244.49370457 98.97178916 246.64570779 99.83311128 248.79785156 100.6940918 C249.43594002 100.95008085 250.07402847 101.20606991 250.73145294 101.46981621 C253.30823442 102.49937557 255.87438787 103.47766054 258.5078125 104.35546875 C258.53079081 143.39628886 258.54836727 182.43710807 258.55887783 221.47793361 C258.56012827 226.10573179 258.56142262 230.73352996 258.56274414 235.36132812 C258.56300645 236.28249076 258.56326876 237.2036534 258.56353902 238.15273006 C258.56786923 252.99307399 258.57574195 267.83341397 258.5849653 282.67375557 C258.59437598 297.94490709 258.59988366 313.21605657 258.60190099 328.48721087 C258.60326096 337.88114244 258.6075274 347.27506286 258.61572897 356.66899098 C258.6210883 363.14440417 258.62259637 369.61981175 258.62131388 376.09522699 C258.62068455 379.80973542 258.62152268 383.52422463 258.62701797 387.23872948 C258.64746033 401.89706635 258.55580869 416.54877918 258.17145728 431.20233996 C258.13405182 432.63590328 258.09865698 434.06952094 258.06558604 435.5031908 C257.59143397 455.43879376 254.94821811 475.1540372 249.5078125 494.35546875 C249.02332128 496.37503215 248.54391979 498.39582528 248.0703125 500.41796875 C245.5460579 510.46040868 242.27674804 520.24482882 237.81640625 529.59765625 C236.7092592 531.93092735 235.65849734 534.27600754 234.62109375 536.640625 C228.95866686 549.40250912 222.12080162 561.30108303 214.3828125 572.91796875 C213.72635742 573.90418213 213.06990234 574.89039551 212.39355469 575.90649414 C208.058664 582.31198226 203.43857176 588.39821506 198.5078125 594.35546875 C197.97768555 594.99734131 197.44755859 595.63921387 196.90136719 596.30053711 C185.61155164 609.8176329 173.51721064 622.62687179 159.5078125 633.35546875 C158.34235998 634.27332586 157.17700133 635.19130216 156.01171875 636.109375 C140.92400703 647.84447709 124.20592138 659.03191834 106.54248047 666.49414062 C104.22773819 667.47403153 101.92255062 668.47480887 99.6171875 669.4765625 C97.83075361 670.24875447 96.04429478 671.02088874 94.2578125 671.79296875 C93.37996094 672.17517578 92.50210937 672.55738281 91.59765625 672.95117188 C75.67335262 679.81750777 59.41228907 683.76378042 42.5078125 687.35546875 C41.45158691 687.58862793 40.39536133 687.82178711 39.30712891 688.06201172 C22.93370766 691.556553 6.55725314 691.76739128 -10.1171875 691.85546875 C-11.18512543 691.86609344 -12.25306335 691.87671814 -13.35336304 691.88766479 C-31.14096404 692.02309081 -48.07566155 689.86764447 -65.4921875 686.35546875 C-65.4921875 685.69546875 -65.4921875 685.03546875 -65.4921875 684.35546875 C-67.25369141 684.13503906 -67.25369141 684.13503906 -69.05078125 683.91015625 C-79.197732 682.53332768 -88.39932072 680.34709414 -97.953125 676.66015625 C-100.84104147 675.59551596 -103.46471416 674.83472129 -106.4921875 674.35546875 C-106.8221875 673.36546875 -107.1521875 672.37546875 -107.4921875 671.35546875 C-110.4398764 670.27458694 -110.4398764 670.27458694 -113.9921875 669.48046875 C-119.40733787 668.05223663 -123.8915106 666.38079684 -128.625 663.40625 C-130.45394599 662.24484964 -130.45394599 662.24484964 -132.609375 661.9609375 C-133.54136719 661.66123047 -133.54136719 661.66123047 -134.4921875 661.35546875 C-134.75386719 660.77023437 -135.01554687 660.185 -135.28515625 659.58203125 C-137.18999023 656.06825984 -140.40389668 654.67563032 -143.8046875 652.73046875 C-144.46919922 652.33601562 -145.13371094 651.9415625 -145.81835938 651.53515625 C-148.53560457 649.94404927 -151.11769894 648.49618566 -154.0703125 647.38671875 C-157.43831887 645.95259991 -160.10531938 643.76207149 -162.9296875 641.48046875 C-163.54384521 640.98853027 -164.15800293 640.4965918 -164.79077148 639.98974609 C-166.69811421 638.45325527 -168.59565887 636.90527737 -170.4921875 635.35546875 C-171.04551758 634.90945313 -171.59884766 634.4634375 -172.16894531 634.00390625 C-188.61729684 620.6937926 -204.11269935 605.54574627 -216.4921875 588.35546875 C-217.32038768 587.2438765 -218.14983417 586.13321183 -218.98046875 585.0234375 C-223.83431154 578.46350379 -228.27114794 571.67516424 -232.5546875 564.73046875 C-233.03228516 563.95993164 -233.50988281 563.18939453 -234.00195312 562.39550781 C-234.44345703 561.6681543 -234.88496094 560.94080078 -235.33984375 560.19140625 C-235.73179932 559.5473584 -236.12375488 558.90331055 -236.52758789 558.23974609 C-237.5249718 556.29142694 -238.04849793 554.49241052 -238.4921875 552.35546875 C-239.1521875 552.35546875 -239.8121875 552.35546875 -240.4921875 552.35546875 C-246.61513607 540.46624824 -246.61513607 540.46624824 -248.67358398 534.4987793 C-249.57055229 532.15028997 -250.65596959 529.94909774 -251.76171875 527.69140625 C-254.91991407 520.78460775 -256.94608244 513.63932195 -258.97705078 506.34106445 C-259.61397962 504.05448507 -260.26484698 501.77223498 -260.91796875 499.49023438 C-267.26959791 477.10298765 -270.31845203 455.24998542 -271.04759216 431.98472595 C-271.06858286 431.32443604 -271.08957355 430.66414613 -271.11120033 429.98384743 C-271.57423202 415.14531878 -271.63011777 400.30941014 -271.60825312 385.46456468 C-271.60382616 381.67025491 -271.60540347 377.87594616 -271.6061554 374.08163452 C-271.60667308 367.54838709 -271.60360664 361.01514985 -271.59791756 354.48190498 C-271.58969815 345.03659342 -271.5871768 335.59128664 -271.58592957 326.14597189 C-271.5837552 310.81174867 -271.57713952 295.47753085 -271.56762695 280.14331055 C-271.55841063 265.27091498 -271.55135059 250.3985209 -271.54711914 235.52612305 C-271.54685642 234.60531185 -271.54659369 233.68450065 -271.54632301 232.73578609 C-271.54501772 228.1151296 -271.54375407 223.49447311 -271.54251111 218.87381661 C-271.53218892 180.70103021 -271.5146153 142.52824984 -271.4921875 104.35546875 C-270.41418381 103.95751099 -269.33618011 103.55955322 -268.22550964 103.14953613 C-266.78595245 102.61479422 -265.34644608 102.07991551 -263.90698242 101.54492188 C-263.19946587 101.28414856 -262.49194931 101.02337524 -261.76299286 100.75469971 C-256.26983745 98.70847587 -250.9847743 96.33195664 -245.68603516 93.82421875 C-240.11338704 91.2615333 -234.39734481 89.07062042 -228.6796875 86.85546875 C-227.45644775 86.37770996 -226.23320801 85.89995117 -224.97290039 85.40771484 C-217.37199579 82.44674213 -209.75289776 79.54429043 -202.08203125 76.76953125 C-199.15461085 75.61640156 -196.33052129 74.38053866 -193.4765625 73.0625 C-186.68214148 69.94131827 -179.7512139 67.17734204 -172.8046875 64.41796875 C-171.4672557 63.88418838 -170.12985356 63.35033369 -168.79248047 62.81640625 C-160.81097278 59.6367426 -152.80648778 56.53714885 -144.71875 53.63671875 C-142.31862716 52.68364334 -140.14932091 51.69168699 -137.87109375 50.5078125 C-132.36409492 47.69631693 -126.58260145 45.60014215 -120.8046875 43.41796875 C-119.70962891 43.00095703 -118.61457031 42.58394531 -117.48632812 42.15429688 C-113.04361904 40.46245887 -108.60071021 38.7715089 -104.14990234 37.10107422 C-99.09474921 35.18829337 -94.10631259 33.22591212 -89.203125 30.94921875 C-81.97055506 27.59619828 -74.54040374 24.75327491 -67.1171875 21.85546875 C-65.6873978 21.29453126 -64.2577098 20.73333448 -62.828125 20.171875 C-55.32119602 17.22698655 -47.80343177 14.3138751 -40.26416016 11.45263672 C-37.54635715 10.37690951 -34.8946087 9.20763679 -32.2421875 7.98046875 C-27.41969323 5.75743384 -22.5672546 3.61835324 -17.6796875 1.54296875 C-16.60315918 1.07141357 -16.60315918 1.07141357 -15.50488281 0.59033203 C-9.75126387 -1.82511499 -5.90671368 -2.78157322 0 0 Z M-14.0546875 19.54296875 C-15.12332031 20.001875 -16.19195313 20.46078125 -17.29296875 20.93359375 C-20.12378914 22.19173615 -22.93435111 23.48462743 -25.7421875 24.79296875 C-30.49854287 26.97380117 -35.33238089 28.82493905 -40.24194336 30.63037109 C-47.13791565 33.1859606 -53.97264293 35.89314976 -60.80258179 38.61911011 C-62.11925602 39.14447527 -63.43632325 39.66885678 -64.7538147 40.19216919 C-71.96531233 43.05813139 -79.0966029 46.03994781 -86.14282227 49.29418945 C-89.14795361 50.65169812 -92.20207928 51.8027964 -95.3046875 52.91796875 C-102.85581634 55.68700453 -110.33329387 58.63797322 -117.80258179 61.61911011 C-119.11925602 62.14447527 -120.43632325 62.66885678 -121.7538147 63.19216919 C-128.95803531 66.05523939 -136.08190225 69.03411714 -143.12084961 72.28540039 C-146.23524188 73.69077271 -149.40409578 74.88288894 -152.6171875 76.04296875 C-159.89388269 78.71620729 -167.10429121 81.54599613 -174.3046875 84.41796875 C-175.34189941 84.82942139 -176.37911133 85.24087402 -177.44775391 85.66479492 C-183.39446576 88.04395351 -189.23714649 90.58115394 -195.05493164 93.2590332 C-198.09109941 94.62489812 -201.17211656 95.79202688 -204.3046875 96.91796875 C-212.57509439 99.94823401 -220.7517463 103.21119754 -228.9296875 106.48046875 C-229.90731552 106.870103 -229.90731552 106.870103 -230.9046936 107.26760864 C-232.80836405 108.02666351 -234.71098061 108.78830078 -236.61328125 109.55078125 C-237.7211499 109.99437988 -238.82901855 110.43797852 -239.97045898 110.89501953 C-242.73799228 112.04270648 -245.47660036 113.22669702 -248.21229553 114.44674683 C-249.01582994 114.80481855 -249.81936434 115.16289028 -250.64724827 115.53181267 C-251.25607821 115.80361917 -251.86490816 116.07542568 -252.4921875 116.35546875 C-252.53801227 158.37795252 -252.57323072 200.40043339 -252.59431816 242.42293721 C-252.59681943 247.38938006 -252.59940809 252.35582285 -252.60205078 257.32226562 C-252.6025754 258.31095276 -252.60310002 259.2996399 -252.60364054 260.31828725 C-252.61233199 276.30567233 -252.628095 292.29304295 -252.64649309 308.28041947 C-252.66522724 324.69731598 -252.67631165 341.11420495 -252.68036449 357.53111172 C-252.68310226 367.65292284 -252.69173461 377.77469311 -252.70802043 387.89649165 C-252.71863074 394.84693806 -252.721779 401.79736349 -252.71919025 408.7478174 C-252.71791524 412.75175438 -252.71980447 416.7556202 -252.73059845 420.75954437 C-252.74043799 424.43659259 -252.74075423 428.1135228 -252.73398529 431.79057682 C-252.73275987 433.72728974 -252.7412892 435.66400159 -252.75035012 437.6006937 C-252.64931108 467.75293354 -245.44133269 499.16982264 -232.4921875 526.35546875 C-232.02087402 527.35167236 -231.54956055 528.34787598 -231.06396484 529.37426758 C-229.61031485 532.43429037 -228.14675281 535.48935751 -226.6796875 538.54296875 C-225.92655273 540.11401367 -225.92655273 540.11401367 -225.15820312 541.71679688 C-223.93718321 544.26349556 -222.71516573 546.80971007 -221.4921875 549.35546875 C-220.8321875 549.35546875 -220.1721875 549.35546875 -219.4921875 549.35546875 C-219.41484375 550.04125 -219.3375 550.72703125 -219.2578125 551.43359375 C-218.2810348 555.16129639 -216.39985591 557.97240461 -214.2421875 561.10546875 C-213.58162354 562.07685791 -213.58162354 562.07685791 -212.90771484 563.06787109 C-204.01529494 575.98856029 -194.4126188 588.09880865 -183.4921875 599.35546875 C-182.97688477 599.89655273 -182.46158203 600.43763672 -181.93066406 600.99511719 C-174.02822382 609.28660065 -165.70393707 616.55626322 -156.4921875 623.35546875 C-155.5338501 624.07234863 -155.5338501 624.07234863 -154.55615234 624.80371094 C-102.52421614 663.54356233 -36.69424803 680.40140212 27.62329102 671.83203125 C70.75814216 665.33991404 113.26553617 648.87808107 146.92675781 620.67626953 C148.49964511 619.36229173 150.09109893 618.07431726 151.6875 616.7890625 C165.00711692 605.94471853 177.06250552 593.78898123 187.29492188 579.98730469 C188.48032318 578.39245317 189.68914962 576.8150978 190.8984375 575.23828125 C198.64532218 565.09355131 205.49812284 554.9174745 210.96484375 543.38671875 C212.30070882 540.76233573 213.74654264 538.68927262 215.5078125 536.35546875 C216.18599455 534.85759421 216.80909586 533.33388025 217.3828125 531.79296875 C218.74781184 528.2305273 220.23014703 524.7932248 221.8828125 521.35546875 C228.44111772 506.99157327 232.10201768 491.71109984 235.5078125 476.35546875 C235.81692157 475.1045321 236.12603064 473.85359545 236.44450665 472.56475163 C241.23301916 450.88172491 240.95101847 427.86849833 240.85600936 405.78822076 C240.84273863 401.89575268 240.84745972 398.00329375 240.84971619 394.11080933 C240.85126987 387.40728149 240.84206398 380.70384297 240.82500267 374.0003376 C240.800353 364.30886915 240.79278127 354.61744274 240.7890387 344.92594635 C240.78251429 329.19238718 240.76266361 313.45887535 240.73413086 297.7253418 C240.70648533 282.4649275 240.68530352 267.20452617 240.67260742 251.9440918 C240.67181925 250.99938464 240.67103108 250.05467747 240.67021903 249.08134282 C240.66630319 244.34081384 240.66251224 239.60028477 240.65878332 234.85975564 C240.62781267 195.69162691 240.57508814 156.52355099 240.5078125 117.35546875 C238.59118555 116.38729168 236.67341855 115.42137126 234.75517273 114.45640564 C233.68733897 113.91826705 232.61950521 113.38012846 231.51931286 112.82568264 C228.0618704 111.13775991 224.65047008 109.77628608 221.02734375 108.484375 C219.65769932 107.98636718 218.28875496 107.48643098 216.92041016 106.98486328 C216.20757874 106.72408997 215.49474731 106.46331665 214.76031494 106.19464111 C208.06516167 103.7003541 201.44730688 100.99775804 194.81518555 98.34155273 C192.18208414 97.2876742 189.54716006 96.23844682 186.91210938 95.18945312 C179.09658285 92.06869102 171.33589732 88.9063214 163.70336914 85.35522461 C160.65151654 83.96555082 157.53594891 82.80640183 154.3828125 81.66796875 C147.10611731 78.99473021 139.89570879 76.16494137 132.6953125 73.29296875 C131.65810059 72.88151611 130.62088867 72.47006348 129.55224609 72.04614258 C123.60553424 69.66698399 117.76285351 67.12978356 111.94506836 64.4519043 C108.90890059 63.08603938 105.82788344 61.91891062 102.6953125 60.79296875 C95.14418366 58.02393297 87.66670613 55.07296428 80.19741821 52.09182739 C78.88074398 51.56646223 77.56367675 51.04208072 76.2461853 50.51876831 C69.03468767 47.65280611 61.9033971 44.67098969 54.85717773 41.41674805 C51.85204639 40.05923938 48.79792072 38.9081411 45.6953125 37.79296875 C38.14418366 35.02393297 30.66670613 32.07296428 23.19741821 29.09182739 C21.88074398 28.56646223 20.56367675 28.04208072 19.2461853 27.51876831 C11.9879897 24.63424761 4.81269896 21.66495076 -2.21166992 18.24047852 C-6.73130458 16.48652544 -9.84332634 17.72047557 -14.0546875 19.54296875 Z " fill="#D1AB3F" transform="translate(1599.4921875,328.64453125)"/>
<path d="M0 0 C13.57545082 -0.68066327 26.38178795 1.25316493 39.75048828 3.48291016 C43.77409363 4.12318034 47.80670222 4.6437477 51.84887695 5.15087891 C61.82723647 6.40574252 71.31507786 8.27870243 81 11 C82.1653125 11.30808594 83.330625 11.61617188 84.53125 11.93359375 C105.00807832 17.49093117 122.88954542 24.84464065 138 40 C138.69222656 40.63292969 139.38445312 41.26585937 140.09765625 41.91796875 C144.69734913 46.19653317 148.30136222 51.0151087 152 56.0625 C158.6129892 64.99902682 164.54054564 70.35352817 174.4375 75.4375 C188.5852244 82.7253034 188.5852244 82.7253034 192 88 C193.35712868 95.26948928 189.7200527 102.87604913 185.7890625 108.8359375 C178.83582524 117.71839666 168.63396531 123.21286359 158.4296875 127.5 C157.79393799 127.76796387 157.15818848 128.03592773 156.50317383 128.31201172 C154.63258702 129.0956391 152.75584428 129.86452185 150.87890625 130.6328125 C147.90090393 131.68477436 147.90090393 131.68477436 147 134 C162.5962623 131.74368794 174.28645013 127.05051875 186 116 C186.55558594 115.24976563 187.11117188 114.49953125 187.68359375 113.7265625 C188.11800781 113.15679688 188.55242187 112.58703125 189 112 C189.66 112 190.32 112 191 112 C191.28617188 111.27941406 191.57234375 110.55882812 191.8671875 109.81640625 C192.57987857 108.04450881 193.31163904 106.28004557 194.0703125 104.52734375 C196.75594277 97.93262942 198.63836784 91.10298605 197 84 C192.95255348 78.88048512 187.57275661 76.38513322 181.8828125 73.48242188 C177.10658869 70.93660447 174.13896943 68.4403464 171 64 C170.4375 61.375 170.4375 61.375 171 59 C171.89525391 58.13375 171.89525391 58.13375 172.80859375 57.25 C175.39556378 54.59385965 176.8696316 51.88923825 178.625 48.625 C186.28559926 34.79270113 195.06651099 22.04479315 209 14 C209.70253906 13.58363281 210.40507813 13.16726563 211.12890625 12.73828125 C221.15806311 7.76730785 234.60006842 8.68148212 245.125 11.625 C252.0123541 14.11356051 258.0142266 17.20918333 262.3125 23.25 C265.88762109 26.90826344 268.62376169 26.84792324 273.57421875 27.43359375 C279.6522162 28.43850781 285.27070958 30.7794762 291 33 C291 33.99 291 34.98 291 36 C290.30777344 36.07476562 289.61554688 36.14953125 288.90234375 36.2265625 C274.19398485 38.2031799 259.1333004 43.98357596 249.55859375 55.76953125 C242.06966375 66.48677192 240.36076739 79.59788113 238.0390625 92.18359375 C234.44130016 111.50028049 226.98730735 131.24063862 210.625 143.4375 C191.95919845 155.87205343 173.02089909 161.15927735 150.67578125 161.0703125 C147.84438066 161.07603088 145.01301883 161.08913643 142.18164062 161.1015625 C137.74918821 161.11977573 133.3174311 161.12863067 128.88500977 161.09960938 C125.27665697 161.07684351 121.66979256 161.08877979 118.06154442 161.12261581 C116.04949303 161.13251145 114.03736472 161.10686608 112.02546692 161.08010864 C95.67067189 161.29214114 84.02623807 171.38340537 71.75415039 181.17944336 C55.37536187 194.21247747 55.37536187 194.21247747 48.75 194.625 C44.47065599 193.911776 42.1856629 192.94673818 39 190 C38.5949707 187.56640625 38.5949707 187.56640625 39 185 C40.66479492 183.2265625 40.66479492 183.2265625 42.98046875 181.625 C43.81513672 181.03203125 44.64980469 180.4390625 45.50976562 179.828125 C46.39341797 179.22484375 47.27707031 178.6215625 48.1875 178 C56.0569645 172.54421661 56.0569645 172.54421661 63 166 C62.25427734 166.36351562 61.50855469 166.72703125 60.74023438 167.1015625 C57.94299739 168.45590443 55.13945888 169.79594157 52.33105469 171.12695312 C50.5306603 171.98538117 48.73789541 172.85975213 46.9453125 173.734375 C35.83665144 178.97666449 35.83665144 178.97666449 29 178 C25.37896089 175.95332572 24.2483487 174.61495869 22.6875 170.75 C22.460625 169.8425 22.23375 168.935 22 168 C25.38660174 165.74226551 27.70535199 165.3989598 31.6875 164.625 C43.63335109 162.0114892 54.29331999 155.70200444 65 150 C61.6866515 150.89271326 58.37445878 151.78964549 55.0625 152.6875 C54.06645752 152.95643066 53.07041504 153.22536133 52.04418945 153.50244141 C46.60631664 154.9805545 41.20565859 156.53200841 35.82714844 158.21264648 C23.42204271 162.05279389 23.42204271 162.05279389 17 161 C13.29392691 158.95360312 10.28286054 156.10515374 9 152 C8.97520116 150.33351784 8.97259143 148.66644128 9 147 C21.09987707 143.58290509 33.22916205 140.36963282 45.44824219 137.40625 C73.41998505 130.72324283 73.41998505 130.72324283 99 118 C100.84765625 118.2421875 100.84765625 118.2421875 103.0625 118.875 C116.08902643 121.7930945 131.81607507 121.55817461 143.3359375 114.38671875 C144.56079389 113.59654845 145.78336962 112.80277816 147 112 C146.4016333 112.09087891 145.8032666 112.18175781 145.18676758 112.27539062 C121.93450997 115.75887491 101.10404272 117.05892721 81 102.75 C79.1875 101.359375 79.1875 101.359375 78 100 C78 99.01 78 98.02 78 97 C78.57331055 96.98018066 79.14662109 96.96036133 79.73730469 96.93994141 C99.34107619 96.42053111 99.34107619 96.42053111 118 91 C116.9076001 90.9906543 115.8152002 90.98130859 114.68969727 90.97167969 C110.54982991 90.93113301 106.41065656 90.86521362 102.27124023 90.79248047 C100.49594183 90.76463893 98.72052794 90.743246 96.94506836 90.72900391 C82.04587041 90.60248935 66.95813143 89.5258181 53.5625 82.3125 C52.91128174 81.97581299 52.26006348 81.63912598 51.58911133 81.29223633 C45.60684459 78.05927925 40.72411328 73.87805587 36 69 C35.41863281 68.48050781 34.83726563 67.96101562 34.23828125 67.42578125 C33 66 33 66 33 63 C38.16452455 62.85205789 42.92468941 63.38692293 48 64.375 C49.50742272 64.65187021 51.01524545 64.92657039 52.5234375 65.19921875 C53.27463867 65.33505371 54.02583984 65.47088867 54.79980469 65.61083984 C67.54270257 67.86474344 80.17286541 69.24948875 93 67 C91.99324219 66.84442627 90.98648437 66.68885254 89.94921875 66.52856445 C86.13016626 65.93504208 82.31383832 65.32529026 78.49804688 64.71118164 C76.86200423 64.45007358 75.22529837 64.1930799 73.58789062 63.94067383 C59.39423405 61.74798057 45.34067483 58.84405844 32.5 52.125 C31.50432007 51.61356445 31.50432007 51.61356445 30.48852539 51.09179688 C25.33694364 48.35915811 21.00681576 45.2677247 17 41 C16.34257813 40.32710938 15.68515625 39.65421875 15.0078125 38.9609375 C11.6167616 35.32475039 9.68876617 33.03932715 9 28 C14.91723754 28.6139893 20.44584403 29.78338457 26.1875 31.3125 C33.50161264 33.2009912 40.82758253 34.8451156 48.25 36.25 C49.1061792 36.41282471 49.9623584 36.57564941 50.84448242 36.7434082 C61.00424983 38.62395888 70.69238943 39.12079231 81 39 C80.08001221 38.8548999 79.16002441 38.7097998 78.2121582 38.56030273 C20.34686034 29.28870798 20.34686034 29.28870798 5 12 C0 4.76995305 0 4.76995305 0 0 Z " fill="#CFA93D" transform="translate(1446,471)"/>
<path d="M0 0 C1.216875 0.495 2.43375 0.99 3.6875 1.5 C7.88354595 3.40009628 11.56675563 5.65922301 14.9375 8.8125 C18.17623608 10.67722684 20.40938539 9.79183269 24 9 C26.66108649 7.75018479 29.09637719 6.22028108 31.5625 4.625 C38.50544149 0.24593212 44.9042081 -3.22497826 52.9375 -5.125 C53.95360352 -5.37830078 53.95360352 -5.37830078 54.99023438 -5.63671875 C72.2993047 -9.85196694 95.55160904 -11.22419548 112 -3 C112 -0.69 112 1.62 112 4 C111.34 4 110.68 4 110 4 C109.814375 5.8253125 109.814375 5.8253125 109.625 7.6875 C109.2003375 11.09676234 108.3778498 13.83905045 107 17 C106.31320058 19.32748694 105.64238957 21.65986656 105 24 C104.34 24 103.68 24 103 24 C102.731875 24.70125 102.46375 25.4025 102.1875 26.125 C100.28470094 30.73177667 98.54688475 34.49756243 95 38 C94.14311507 39.14947978 93.30959912 40.31673975 92.5 41.5 C90.8495701 43.91216678 89.2106275 46.07158026 87 48 C86.34 48 85.68 48 85 48 C85 48.66 85 49.32 85 50 C83.04316302 51.81618932 81.09309106 53.47724153 79 55.125 C78.38366699 55.61202393 77.76733398 56.09904785 77.13232422 56.60083008 C70.23743883 61.85863278 62.85091665 65.35001243 55 69 C55 79.23 55 89.46 55 100 C54.34 100 53.68 100 53 100 C52.97421875 100.59425781 52.9484375 101.18851563 52.921875 101.80078125 C52.22430049 111.99488148 48.39302177 120.44237315 43.9375 129.5 C43.59710693 130.19496582 43.25671387 130.88993164 42.90600586 131.60595703 C41.25821612 134.86947055 39.74173605 137.56965226 37 140 C36.14311507 141.14947978 35.30959912 142.31673975 34.5 143.5 C32.8495701 145.91216678 31.2106275 148.07158026 29 150 C28.34 150 27.68 150 27 150 C26.67 150.99 26.34 151.98 26 153 C23 155 23 155 20.6875 155.0625 C17.22239873 153.69257624 15.70098068 151.6742187 13.4296875 148.7890625 C12.03476717 146.96121962 12.03476717 146.96121962 10.3203125 145.3984375 C9 144 9 144 9 142 C8.34 142 7.68 142 7 142 C6.67 140.68 6.34 139.36 6 138 C5.34 138 4.68 138 4 138 C3.67 136.68 3.34 135.36 3 134 C2.34 134 1.68 134 1 134 C0.505 131.525 0.505 131.525 0 129 C-0.66 129 -1.32 129 -2 129 C-10.08485322 112.21906755 -13.57693495 96.05500965 -13.63598633 77.40527344 C-13.64525146 76.34083008 -13.6545166 75.27638672 -13.6640625 74.1796875 C-13.65560303 72.75245361 -13.65560303 72.75245361 -13.64697266 71.29638672 C-13.82172119 70.15967529 -13.82172119 70.15967529 -14 69 C-16.80700542 66.92364328 -16.80700542 66.92364328 -19.625 66.1875 C-25.41989562 64.14855524 -30.71030627 61.43150179 -35 57 C-35.99 56.34 -36.98 55.68 -38 55 C-38 54.34 -38 53.68 -38 53 C-38.598125 52.896875 -39.19625 52.79375 -39.8125 52.6875 C-42.31258286 51.90175967 -43.37535082 51.03081147 -45 49 C-45 48.34 -45 47.68 -45 47 C-46.485 46.505 -46.485 46.505 -48 46 C-48 45.34 -48 44.68 -48 44 C-48.66 44 -49.32 44 -50 44 C-51.5078125 42.3203125 -51.5078125 42.3203125 -53.125 40.125 C-53.66382813 39.40570312 -54.20265625 38.68640625 -54.7578125 37.9453125 C-56 36 -56 36 -56 34 C-56.66 34 -57.32 34 -58 34 C-62.27450272 26.5379815 -65.84969113 18.99865656 -69 11 C-69.32226562 10.22140625 -69.64453125 9.4428125 -69.9765625 8.640625 C-72.81772518 1.57754768 -72.81772518 1.57754768 -72 -2 C-54.72923487 -16.13062602 -17.98491858 -8.75436974 0 0 Z " fill="#CCA73D" transform="translate(1577,694)"/>
<path d="M0 0 C58.08 0 116.16 0 176 0 C176 24.75 176 49.5 176 75 C114.29 75 52.58 75 -11 75 C-8.76888388 62.72886133 -8.76888388 62.72886133 -7.78125 58.0546875 C-4.40985206 41.84574388 -2.07371876 26.02389117 -1.24609375 9.48828125 C-1 6 -1 6 0 0 Z " fill="#D2AB3D" transform="translate(1872,759)"/>
<path d="M0 0 C58.08 0 116.16 0 176 0 C176 24.75 176 49.5 176 75 C117.92 75 59.84 75 0 75 C0 50.25 0 25.5 0 0 Z " fill="#D2AB3D" transform="translate(1872,531)"/>
<path d="M0 0 C1.15129395 0.22123535 2.30258789 0.4424707 3.48876953 0.67041016 C11.77787773 2.35191849 11.77787773 2.35191849 15.1875 4.625 C15.125 6.875 15.125 6.875 14.1875 9.625 C9.46040906 13.40667275 4.37113087 14.67445246 -1.578125 14.94140625 C-2.46757813 14.98330078 -3.35703125 15.02519531 -4.2734375 15.06835938 C-5.19382812 15.10767578 -6.11421875 15.14699219 -7.0625 15.1875 C-7.99835938 15.23068359 -8.93421875 15.27386719 -9.8984375 15.31835938 C-12.20298641 15.4241805 -14.50763839 15.52626557 -16.8125 15.625 C-17.3075 17.11 -17.3075 17.11 -17.8125 18.625 C-11.66690769 22.85292591 -6.19668831 24.11878399 1.125 24.125 C1.87064209 24.13080078 2.61628418 24.13660156 3.38452148 24.14257812 C7.67155661 24.04489019 9.29357678 23.61813038 12.1875 20.625 C15.31114962 18.98671182 18.6009147 17.74477016 21.875 16.4375 C23.18500977 15.88545898 23.18500977 15.88545898 24.52148438 15.32226562 C30.01179331 13.11220101 34.26736975 12.0874097 40.1875 12.625 C42.25 13.875 42.25 13.875 43.1875 15.625 C42.95743341 18.55990351 42.22879307 19.5830765 40.140625 21.703125 C33.13193605 27.33438375 25.99308716 32.1398524 18.1875 36.625 C17.49140625 37.03621094 16.7953125 37.44742188 16.078125 37.87109375 C6.85261702 42.93723809 -2.95101503 44.95187324 -13.359375 44.91796875 C-14.1892543 44.91586395 -15.01913361 44.91375916 -15.87416077 44.91159058 C-19.30547802 44.88594487 -22.73448394 44.83603996 -26.16455078 44.73852539 C-38.33216229 44.17768855 -38.33216229 44.17768855 -48.6484375 49.87109375 C-50.06472354 51.43051836 -51.45663991 53.01276098 -52.8125 54.625 C-53.86770548 55.56841252 -54.94479816 56.48876196 -56.0546875 57.3671875 C-57.82697311 58.80289661 -59.59778048 60.24043223 -61.3671875 61.6796875 C-62.17414063 62.32164062 -62.98109375 62.96359375 -63.8125 63.625 C-64.53695313 64.20507812 -65.26140625 64.78515625 -66.0078125 65.3828125 C-67.8125 66.625 -67.8125 66.625 -69.8125 66.625 C-69.8125 67.285 -69.8125 67.945 -69.8125 68.625 C-71.421875 70.16796875 -71.421875 70.16796875 -73.5625 71.8125 C-74.25859375 72.36292969 -74.9546875 72.91335938 -75.671875 73.48046875 C-77.8125 74.625 -77.8125 74.625 -79.828125 74.5 C-85.73273451 71.89639266 -90.92690734 66.2759523 -93.8125 60.625 C-94.31785008 56.80481338 -94.26003475 55.21764085 -91.9074707 52.10229492 C-91.02663818 51.27834229 -90.14580566 50.45438965 -89.23828125 49.60546875 C-88.76272797 49.14929672 -88.28717468 48.69312469 -87.79721069 48.22312927 C-86.778974 47.24696173 -85.75467001 46.2770906 -84.72494507 45.31304932 C-82.03322272 42.78854881 -79.39142795 40.21381644 -76.7578125 37.62890625 C-76.23654282 37.11741028 -75.71527313 36.60591431 -75.1782074 36.07891846 C-70.85101059 31.77694497 -67.08008771 27.19315379 -63.5 22.25 C-46.64211164 -0.80184447 -27.13987322 -5.22452844 0 0 Z " fill="#CDA83D" transform="translate(1670.8125,912.375)"/>
<path d="M0 0 C0.66 0 1.32 0 2 0 C3.00295731 5.03422075 3.99968311 10.0696207 4.99072266 15.10620117 C5.32854107 16.81845148 5.66804245 18.53037065 6.00927734 20.24194336 C6.50023006 22.70601069 6.98506421 25.17121601 7.46875 27.63671875 C7.62186646 28.39836838 7.77498291 29.16001801 7.93273926 29.94474792 C8.65911584 33.67844154 9.18427484 37.19275018 9 41 C9.88042969 40.45730469 10.76085938 39.91460937 11.66796875 39.35546875 C12.84113653 38.6327974 14.01431414 37.91014199 15.1875 37.1875 C16.0547168 36.65286133 16.0547168 36.65286133 16.93945312 36.10742188 C18.62496993 35.06944825 20.31246025 34.03468147 22 33 C22.88300781 32.41863281 23.76601562 31.83726562 24.67578125 31.23828125 C27 30 27 30 31 30 C31 29.34 31 28.68 31 28 C32.32 28 33.64 28 35 28 C33.36036204 33.94615694 30.37624538 39.03522078 27.375 44.375 C26.859375 45.30183594 26.34375 46.22867188 25.8125 47.18359375 C24.54617189 49.45829425 23.27524075 51.73028792 22 54 C22.79664063 54.04898438 23.59328125 54.09796875 24.4140625 54.1484375 C25.47367188 54.22320312 26.53328125 54.29796875 27.625 54.375 C28.66914062 54.44460938 29.71328125 54.51421875 30.7890625 54.5859375 C34 55 34 55 36.796875 55.94140625 C41.01563382 57.33565459 45.23739525 57.92460977 49.625 58.5625 C51.30492871 58.81218453 52.98462615 59.06343122 54.6640625 59.31640625 C55.40092285 59.42412354 56.1377832 59.53184082 56.89697266 59.64282227 C58.96640612 59.99429442 60.9714341 60.46349846 63 61 C63 61.66 63 62.32 63 63 C49.41075531 66.69288819 35.97507628 69.27416227 22 71 C22.35827881 71.60996826 22.71655762 72.21993652 23.08569336 72.84838867 C24.71035476 75.62384092 26.32400227 78.40554421 27.9375 81.1875 C28.50146484 82.14720703 29.06542969 83.10691406 29.64648438 84.09570312 C30.18466797 85.02705078 30.72285156 85.95839844 31.27734375 86.91796875 C31.77484131 87.77156982 32.27233887 88.6251709 32.78491211 89.50463867 C34.01355957 92.02784657 34.5822299 94.23579055 35 97 C29.05384306 95.36036204 23.96477922 92.37624538 18.625 89.375 C17.69816406 88.859375 16.77132813 88.34375 15.81640625 87.8125 C13.54170575 86.54617189 11.26971208 85.27524075 9 84 C8.84337891 85.76730469 8.84337891 85.76730469 8.68359375 87.5703125 C7.99444787 93.75445809 6.73775403 99.81631151 5.47094727 105.90429688 C5.059309 107.89039615 4.65928527 109.87861936 4.25976562 111.8671875 C4.00001953 113.1253125 3.74027344 114.3834375 3.47265625 115.6796875 C3.23812744 116.82163574 3.00359863 117.96358398 2.76196289 119.14013672 C2 122 2 122 0 125 C-0.9847202 120.60884605 -1.96305482 116.21632996 -2.93579102 111.82250977 C-3.26677075 110.33157089 -3.59941717 108.8410009 -3.93383789 107.35083008 C-5.67300609 99.59606366 -7.3644239 91.9402254 -8 84 C-11.06376941 85.60175069 -14.12578334 87.20682948 -17.1875 88.8125 C-18.05181641 89.26431641 -18.91613281 89.71613281 -19.80664062 90.18164062 C-23.25501029 91.99170439 -26.66307953 93.79432437 -29.98828125 95.82421875 C-32 97 -32 97 -34 97 C-33.42889078 93.47770992 -32.53967994 90.78121441 -30.78515625 87.6796875 C-30.34623047 86.89722656 -29.90730469 86.11476563 -29.45507812 85.30859375 C-28.76575195 84.10396484 -28.76575195 84.10396484 -28.0625 82.875 C-27.60681641 82.06417969 -27.15113281 81.25335938 -26.68164062 80.41796875 C-24.86858357 77.20596431 -23.04711403 74.07067105 -21 71 C-21.68932617 70.8860791 -22.37865234 70.7721582 -23.08886719 70.65478516 C-31.48188944 69.26241352 -39.86662188 67.82418697 -48.25 66.375 C-49.59244243 66.14319737 -50.93489031 65.91142636 -52.27734375 65.6796875 C-55.51828271 65.12010092 -58.7591669 64.56019932 -62 64 C-62 63.01 -62 62.02 -62 61 C-57.28791812 59.99406282 -52.57398641 58.9974845 -47.8581543 58.00927734 C-46.25638411 57.67228364 -44.65513501 57.33280265 -43.05444336 56.99072266 C-40.74467573 56.49756966 -38.43314048 56.01359011 -36.12109375 55.53125 C-35.41351425 55.37813354 -34.70593475 55.22501709 -33.97691345 55.06726074 C-29.5329486 54.1516156 -25.50511951 53.85591851 -21 54 C-21.39904541 53.2886792 -21.79809082 52.5773584 -22.20922852 51.84448242 C-24.00416673 48.6312307 -25.78346908 45.40958387 -27.5625 42.1875 C-28.19091797 41.06794922 -28.81933594 39.94839844 -29.46679688 38.79492188 C-30.05654297 37.72177734 -30.64628906 36.64863281 -31.25390625 35.54296875 C-31.80377197 34.55321045 -32.3536377 33.56345215 -32.92016602 32.54370117 C-34 30 -34 30 -33 27 C-32.38479492 27.35827881 -31.76958984 27.71655762 -31.13574219 28.08569336 C-28.34341734 29.70805411 -25.54678546 31.32284208 -22.75 32.9375 C-21.78191406 33.50146484 -20.81382813 34.06542969 -19.81640625 34.64648438 C-18.88183594 35.18466797 -17.94726562 35.72285156 -16.984375 36.27734375 C-16.12553711 36.77484131 -15.26669922 37.27233887 -14.38183594 37.78491211 C-12.22366959 38.8858955 -10.36616252 39.53778404 -8 40 C-7.896875 38.8346875 -7.79375 37.669375 -7.6875 36.46875 C-6.97846804 30.09744872 -5.68725845 23.83648485 -4.41601562 17.55859375 C-3.99548959 15.47768087 -3.58334865 13.39521969 -3.171875 11.3125 C-2.90674414 9.98948421 -2.64113704 8.66656375 -2.375 7.34375 C-2.13523437 6.14943359 -1.89546875 4.95511719 -1.6484375 3.72460938 C-1 1 -1 1 0 0 Z " fill="#CCA73D" transform="translate(1591,380)"/>
<path d="M0 0 C0 0.66 0 1.32 0 2 C0.73476562 2.23460937 1.46953125 2.46921875 2.2265625 2.7109375 C5.47790011 4.22212259 7.04849978 5.91214956 9.375 8.625 C10.15230469 9.5221875 10.92960937 10.419375 11.73046875 11.34375 C12.85388672 12.65859375 12.85388672 12.65859375 14 14 C15.22853695 15.37556267 16.45764453 16.75061606 17.6875 18.125 C21.00783569 21.9263189 24.03569447 25.91729348 27 30 C24.59511567 35.56852895 20.07477609 39.61395629 16 44 C15.484375 44.59296875 14.96875 45.1859375 14.4375 45.796875 C13.1875 47.1875 13.1875 47.1875 11 49 C7.88569292 48.61630714 5.76810623 47.37575171 3.25 45.5625 C2.63640625 45.13066406 2.0228125 44.69882812 1.390625 44.25390625 C0.70226563 43.63322266 0.70226563 43.63322266 0 43 C0 42.34 0 41.68 0 41 C-3.84876681 39.76616704 -7.70450566 39.82980281 -11.703125 39.7890625 C-13.25782202 39.7609381 -14.81250934 39.73227347 -16.3671875 39.703125 C-18.78872809 39.66236159 -21.21009875 39.62544171 -23.63183594 39.59863281 C-37.56740612 39.43142903 -52.28431498 39.18515312 -64.625 31.9375 C-65.66466919 31.35802612 -65.66466919 31.35802612 -66.7253418 30.7668457 C-75.11508376 25.97941387 -84.68001165 20.39901075 -91 13 C-90.7 8.7 -90.7 8.7 -89 7 C-83.14570973 6.35910928 -79.14715344 7.04312462 -74 10 C-71.92520623 10.79709591 -69.83663954 11.53278062 -67.734375 12.25390625 C-66 13 -66 13 -64 15 C-54.1782768 19.48008427 -42.45609845 19.0418208 -32 17 C-32 16.01 -32 15.02 -32 14 C-31.34 13.67 -30.68 13.34 -30 13 C-30 12.34 -30 11.68 -30 11 C-32.42830525 9.78584737 -34.01505113 9.87461106 -36.7265625 9.859375 C-37.67660156 9.84003906 -38.62664062 9.82070313 -39.60546875 9.80078125 C-41.59485428 9.76732457 -43.58455365 9.74872907 -45.57421875 9.74609375 C-52.10181059 9.57917014 -57.0872546 8.55402386 -62 4 C-63 1.1875 -63 1.1875 -63 -1 C-43.10308871 -10.42201091 -18.93148735 -11.56924227 0 0 Z " fill="#CEA83D" transform="translate(1559,918)"/>
<path d="M0 0 C3.8124338 -0.05872928 7.62474906 -0.09383916 11.4375 -0.125 C12.50677734 -0.14175781 13.57605469 -0.15851562 14.67773438 -0.17578125 C22.77995149 -0.22533609 30.23520703 0.38526361 37.625 3.9375 C38.36492187 4.28554688 39.10484375 4.63359375 39.8671875 4.9921875 C40.92292969 5.49105469 40.92292969 5.49105469 42 6 C43.24776474 6.52616586 44.4976073 7.04744672 45.75 7.5625 C48.6864703 8.8613234 51.36584531 10.164074 54 12 C54 12.66 54 13.32 54 14 C55.32 14.33 56.64 14.66 58 15 C58 15.66 58 16.32 58 17 C57.34 17 56.68 17 56 17 C55.7525 17.721875 55.505 18.44375 55.25 19.1875 C53.88046785 22.26894735 52.14002978 24.4060245 50 27 C47.63245464 30.55131804 46.27044155 33.93458703 45 38 C44.34588315 39.67163195 43.68346682 41.34015202 43 43 C34.97949766 41.06585231 29.35707223 38.16427403 23 33 C22.01 32.2575 21.02 31.515 20 30.75 C19.34 30.1725 18.68 29.595 18 29 C18 28.34 18 27.68 18 27 C17.01 26.67 16.02 26.34 15 26 C15 25.34 15 24.68 15 24 C14.34 24 13.68 24 13 24 C11.4921875 22.3203125 11.4921875 22.3203125 9.875 20.125 C9.33617187 19.40570312 8.79734375 18.68640625 8.2421875 17.9453125 C7 16 7 16 7 14 C6.34 14 5.68 14 5 14 C4.15675328 12.421924 3.32576082 10.8372958 2.5 9.25 C2.0359375 8.36828125 1.571875 7.4865625 1.09375 6.578125 C0 4 0 4 0 0 Z " fill="#143143" transform="translate(1527,703)"/>
<path d="M0 0 C-4.92523333 16.6646389 -17.8709182 31.48989149 -33 40 C-35.95506183 41.22687835 -38.89963476 42.21367548 -42 43 C-42.33 41.68 -42.66 40.36 -43 39 C-43.66 39 -44.32 39 -45 39 C-45.64690922 37.3962669 -46.29248764 35.79199694 -46.9375 34.1875 C-47.47697266 32.84751953 -47.47697266 32.84751953 -48.02734375 31.48046875 C-48.73613486 29.6729091 -49.3860247 27.84192591 -50 26 C-50.66 26 -51.32 26 -52 26 C-52.66 24.02 -53.32 22.04 -54 20 C-54.66 20 -55.32 20 -56 20 C-56.33 18.02 -56.66 16.04 -57 14 C-38.58755527 1.21358005 -22.09219538 -0.71943522 0 0 Z " fill="#143143" transform="translate(1668,703)"/>
<path d="M0 0 C10.89 0 21.78 0 33 0 C33.79159068 7.12431608 33.95584166 12.57266829 33.25 19.5 C33.17523437 20.38558594 33.10046875 21.27117188 33.0234375 22.18359375 C31.8271987 34.5266032 26.82071518 47.29152598 19 57 C18.01 57 17.02 57 16 57 C15.67 55.68 15.34 54.36 15 53 C14.34 53 13.68 53 13 53 C11.5393715 50.35261084 11 49.10551666 11 46 C10.01 45.67 9.02 45.34 8 45 C5.8745826 40.51588767 4.46147732 35.73728654 3 31 C2.67386719 29.948125 2.34773438 28.89625 2.01171875 27.8125 C-0.50515202 18.46071477 -0.22044517 9.62610586 0 0 Z " fill="#153243" transform="translate(1581,768)"/>
<path d="M0 0 C-1.10286933 13.65173385 -10.06219671 25.03727688 -20 34 C-25.44042443 38.11027987 -30.77964561 40.10181886 -37.375 41.625 C-39.04981119 42.03641115 -40.72429443 42.44915973 -42.3984375 42.86328125 C-43.19217773 43.05615723 -43.98591797 43.2490332 -44.80371094 43.44775391 C-48.31019739 44.3294427 -51.74835723 45.40795118 -55.1875 46.51953125 C-57 47 -57 47 -60 47 C-59.46159148 42.92245283 -58.28743345 40.66223169 -55.6875 37.5 C-55.0584375 36.72785156 -54.429375 35.95570313 -53.78125 35.16015625 C-52.89953125 34.09087891 -52.89953125 34.09087891 -52 33 C-51.236875 31.989375 -50.47375 30.97875 -49.6875 29.9375 C-49.130625 29.298125 -48.57375 28.65875 -48 28 C-47.34 28 -46.68 28 -46 28 C-46 27.34 -46 26.68 -46 26 C-37.72688648 18.91783372 -27.80398464 14.10122324 -18.13647461 9.25048828 C-13.87902116 7.10063858 -9.8222109 4.99657323 -5.9921875 2.140625 C-3 0 -3 0 0 0 Z " fill="#CBA63D" transform="translate(1813,807)"/>
<path d="M0 0 C3.29130653 0.64330082 5.6624194 1.85624142 8.5 3.625 C9.81097656 4.429375 9.81097656 4.429375 11.1484375 5.25 C12.08945313 5.8275 13.03046875 6.405 14 7 C21.95881767 11.77842748 21.95881767 11.77842748 30.1875 16.0625 C41.65141515 21.72369267 53.92982398 31.49996188 60 43 C60 44.32 60 45.64 60 47 C53.27938289 45.69453064 46.59472157 44.2858539 39.9375 42.6875 C39.10412109 42.49994141 38.27074219 42.31238281 37.41210938 42.11914062 C21.97446677 38.3828707 13.05952979 28.49200829 4.9453125 15.4296875 C-0.52580239 5.78382631 -0.52580239 5.78382631 0 0 Z " fill="#CAA63D" transform="translate(1373,807)"/>
<path d="M0 0 C2.96355071 1.34308102 5.13557537 2.85035852 7.49609375 5.08203125 C8.13740234 5.68466797 8.77871094 6.28730469 9.43945312 6.90820312 C10.09880859 7.53662109 10.75816406 8.16503906 11.4375 8.8125 C12.09298828 9.42931641 12.74847656 10.04613281 13.42382812 10.68164062 C17.00791595 14.06441559 20.53812015 17.49165196 24 21 C24.79019531 21.79277344 25.58039063 22.58554687 26.39453125 23.40234375 C33.03554142 30.36521224 37.56149484 37.52184152 42 46 C42.68449219 47.21623047 42.68449219 47.21623047 43.3828125 48.45703125 C45.56772829 52.45252412 46.45576209 55.44237911 46 60 C40.93105147 59.47834122 37.36645248 57.01058288 33.1875 54.3125 C32.11737671 53.62921631 32.11737671 53.62921631 31.02563477 52.93212891 C13.61760341 41.73286254 2.7839892 27.5522694 -2 7 C-2.21875 4.29296875 -2.21875 4.29296875 -2 2 C-1.34 1.34 -0.68 0.68 0 0 Z " fill="#CCA73D" transform="translate(1363,758)"/>
<path d="M0 0 C5.76618834 0.85661778 8.64096028 5.6151083 12 10 C20.02599099 22.0937447 23.11325348 33.18242679 20.27734375 47.69921875 C18.25487531 55.14223013 15.43486686 62.10211164 12 69 C11.01 69 10.02 69 9 69 C8.93683594 68.33097656 8.87367187 67.66195312 8.80859375 66.97265625 C7.65949829 57.96132871 4.51087824 50.27166127 0.83789062 42.05126953 C-1.3157779 36.7787978 -2.25527453 32.46541966 -2.265625 26.73828125 C-2.26753845 26.06580856 -2.2694519 25.39333588 -2.27142334 24.70048523 C-2.27277609 23.28949608 -2.26914367 21.87849409 -2.26074219 20.4675293 C-2.24997831 18.30814867 -2.2606936 16.14959031 -2.2734375 13.99023438 C-2.27211673 12.6145815 -2.26955604 11.23892914 -2.265625 9.86328125 C-2.26224121 7.99603394 -2.26224121 7.99603394 -2.25878906 6.09106445 C-2 3 -2 3 0 0 Z " fill="#CDA83D" transform="translate(1761,743)"/>
<path d="M0 0 C1.9375 0.375 1.9375 0.375 4 1 C8.43075628 9.86151255 6.41972425 28.33968954 4.03027344 37.86621094 C2.11479137 43.58213152 -0.219485 49.04090453 -2.71484375 54.5234375 C-4.9460074 59.45421445 -5.73763522 63.60756634 -6 69 C-6.99 69 -7.98 69 -9 69 C-15.90398331 55.1473474 -21.01256803 41.09043968 -17.12109375 25.47265625 C-14.57830791 18.28068442 -11.03075855 12.6816681 -6 7 C-5.11828125 5.95779297 -5.11828125 5.95779297 -4.21875 4.89453125 C-2.82729589 3.25038382 -1.41591878 1.6231264 0 0 Z " fill="#CEA83D" transform="translate(1422,743)"/>
<path d="M0 0 C1.32 0.66 2.64 1.32 4 2 C3.51388005 8.41425805 2.35675006 13.60840948 -0.1875 19.5 C-0.50066162 20.23976074 -0.81382324 20.97952148 -1.13647461 21.74169922 C-3.54051177 27.2698292 -6.28232362 32.23609228 -10 37 C-10.38929687 37.57363281 -10.77859375 38.14726563 -11.1796875 38.73828125 C-16.18097823 45.49468333 -23.99344067 49.6004025 -31 54 C-32.53140625 54.97646484 -32.53140625 54.97646484 -34.09375 55.97265625 C-40.5679669 60 -40.5679669 60 -44 60 C-44.69026048 53.96265128 -42.35851051 49.95381473 -39.5625 44.8125 C-39.11165039 43.97041992 -38.66080078 43.12833984 -38.19628906 42.26074219 C-34.46129993 35.46771437 -30.22471393 29.74011125 -25 24 C-23.97708793 22.75170052 -22.95602588 21.50188087 -21.9375 20.25 C-19.29442349 17.19529682 -16.37452453 14.59073639 -13.30078125 11.9765625 C-10.48540032 9.55791606 -7.7411176 7.06441526 -5 4.5625 C-4.05125 3.69753906 -3.1025 2.83257813 -2.125 1.94140625 C-1.073125 0.98041016 -1.073125 0.98041016 0 0 Z " fill="#CEA83D" transform="translate(1821,758)"/>
<path d="M0 0 C-0.875 4.75 -0.875 4.75 -2 7 C-2.66 7 -3.32 7 -4 7 C-4.2475 7.5775 -4.495 8.155 -4.75 8.75 C-6.18299988 11.32939979 -7.78424676 13.06121592 -10 15 C-10.66 15 -11.32 15 -12 15 C-12 15.66 -12 16.32 -12 17 C-14.08923588 18.72798472 -16.16554968 20.31373821 -18.375 21.875 C-19.01042725 22.32609131 -19.64585449 22.77718262 -20.30053711 23.24194336 C-28.73316827 29.07370756 -36.91518575 31.96259261 -47.17578125 32.31640625 C-48.33271484 32.35830078 -49.48964844 32.40019531 -50.68164062 32.44335938 C-51.87982422 32.48267578 -53.07800781 32.52199219 -54.3125 32.5625 C-55.53001953 32.60568359 -56.74753906 32.64886719 -58.00195312 32.69335938 C-61.0011947 32.79921496 -64.00051591 32.90129726 -67 33 C-66.22976993 29.22031427 -64.97047577 27.52040369 -62 25 C-61.34 25 -60.68 25 -60 25 C-60 24.34 -60 23.68 -60 23 C-58.12241305 21.31622848 -56.24806199 19.77926841 -54.25 18.25 C-53.73050781 17.83234375 -53.21101563 17.4146875 -52.67578125 16.984375 C-43.03101417 9.54088417 -33.00071375 6.08664827 -21.0625 4.25 C-18.69847841 3.86388074 -16.33516031 3.47342327 -13.97265625 3.078125 C-12.94406494 2.91731445 -11.91547363 2.75650391 -10.85571289 2.59082031 C-7.00257694 1.79364249 -3.95654157 0 0 0 Z " fill="#CAA63D" transform="translate(1791,852)"/>
<path d="M0 0 C6.77176825 0.94204143 13.49994548 2.07402093 20.22338867 3.30932617 C21.60938136 3.56022049 22.99678147 3.80346762 24.38549805 4.03881836 C36.02606224 6.01781094 44.50777098 9.7457201 53.625 17.4375 C54.53121094 18.20191406 55.43742187 18.96632813 56.37109375 19.75390625 C57.23863281 20.49511719 58.10617187 21.23632812 59 22 C59.81597656 22.66902344 60.63195313 23.33804688 61.47265625 24.02734375 C62.20355469 24.63707031 62.93445312 25.24679687 63.6875 25.875 C64.33074219 26.40867187 64.97398438 26.94234375 65.63671875 27.4921875 C67 29 67 29 67 32 C62.9161912 31.88832626 58.83316064 31.75814654 54.75 31.625 C53.61046875 31.5940625 52.4709375 31.563125 51.296875 31.53125 C29.97756603 30.80445538 29.97756603 30.80445538 23 25.0625 C22.02160156 24.26714844 21.04320312 23.47179687 20.03515625 22.65234375 C19.01890113 21.77344731 18.00732527 20.8891171 17 20 C16.45714355 19.52191895 15.91428711 19.04383789 15.35498047 18.55126953 C11.84202498 15.4303529 8.39889856 12.24464495 5 9 C4.39285156 8.44054687 3.78570313 7.88109375 3.16015625 7.3046875 C2 6 2 6 2 4 C1.34 4 0.68 4 0 4 C0 2.68 0 1.36 0 0 Z " fill="#C8A53D" transform="translate(1395,853)"/>
<path d="M0 0 C3.39206701 1.67052924 4.05745911 5.04128047 5.328125 8.3984375 C7.90559113 14.74291541 10.87230575 19.98639668 15.0859375 25.4296875 C17.18039065 28.15658336 19.08378484 30.95048298 20.953125 33.8359375 C21.50742188 34.68800781 22.06171875 35.54007813 22.6328125 36.41796875 C25.6847615 41.91972546 26.4933234 47.04083702 26.515625 53.2734375 C26.52142578 54.39190063 26.52142578 54.39190063 26.52734375 55.53295898 C26.39459038 61.91134346 24.71844402 66.73197378 21.078125 72.0234375 C20.088125 72.0234375 19.098125 72.0234375 18.078125 72.0234375 C17.85769531 71.02376953 17.85769531 71.02376953 17.6328125 70.00390625 C15.35849322 60.6582839 11.55323716 52.90935771 5.453125 45.4609375 C1.83697859 40.97468081 -0.21437647 36.50630967 -1.921875 31.0234375 C-2.14746094 30.31316406 -2.37304688 29.60289062 -2.60546875 28.87109375 C-4.89689077 19.87923768 -4.09607431 10.2292012 -3.921875 1.0234375 C-1.921875 0.0234375 -1.921875 0.0234375 0 0 Z " fill="#CCA73D" transform="translate(1766.921875,697.9765625)"/>
<path d="M0 0 C0.65465735 17.74848813 -0.14522635 32.23656599 -11 47 C-16.20573734 54.45619862 -21.05011326 61.7386043 -22 71 C-23.859375 70.75390625 -23.859375 70.75390625 -26 70 C-31.4038611 62.64474462 -30.8224054 52.63967824 -30 44 C-28.54689325 36.38484658 -23.73360104 30.7106634 -19.14916992 24.68530273 C-14.03415198 17.90393134 -10.48948709 10.64126046 -7.25 2.8125 C-5.38647658 -1.3804277 -4.06250945 -1.21875283 0 0 Z " fill="#CDA73D" transform="translate(1423,699)"/>
<path d="M0 0 C4.45530761 -0.4341069 4.45530761 -0.4341069 6.80859375 1.44140625 C17.70897633 15.6354296 20.19602621 32.50976612 22.52734375 49.828125 C22.94589314 52.63690273 23.4792315 55.36129148 24.125 58.125 C25 62 25 62 25 66 C24.01 66 23.02 66 22 66 C22 65.01 22 64.02 22 63 C21.27683594 62.7628125 20.55367187 62.525625 19.80859375 62.28125 C10.4328385 58.00413217 3.74739009 47.7483422 -0.02734375 38.4765625 C-2.15567991 31.63057797 -2.27150993 24.79634932 -2.3125 17.6875 C-2.31813965 16.74422852 -2.3237793 15.80095703 -2.32958984 14.82910156 C-2.27396237 9.50960672 -1.74216866 5.03216048 0 0 Z " fill="#CBA63D" transform="translate(1447,818)"/>
<path d="M0 0 C2.1875 0.3125 2.1875 0.3125 4 1 C5.93869863 6.6930039 6.31630657 11.75747254 6.25 17.75 C6.23876099 19.0800708 6.23876099 19.0800708 6.22729492 20.43701172 C6.02313993 32.88476356 4.02615441 44.66259888 -5 54 C-5.66 54 -6.32 54 -7 54 C-7 54.66 -7 55.32 -7 56 C-8.609375 57.62109375 -8.609375 57.62109375 -10.75 59.4375 C-11.44609375 60.03433594 -12.1421875 60.63117187 -12.859375 61.24609375 C-18.66146993 66 -18.66146993 66 -21 66 C-20.40116489 59.17327976 -19.14488737 52.60461551 -17.74609375 45.8984375 C-17.04710162 42.24611212 -16.56050897 38.62895698 -16.125 34.9375 C-14.44229482 22.81655047 -9.82188434 8.12660019 0 0 Z " fill="#CCA73D" transform="translate(1735,817)"/>
<path d="M0 0 C0.66 0 1.32 0 2 0 C2.24492188 0.76441406 2.48984375 1.52882813 2.7421875 2.31640625 C5.09104578 9.04710014 7.82125974 14.60948754 11.875 20.4375 C21.90575574 34.98507231 28.50681906 50.03833236 28 68 C22.76405467 66.51532741 19.74549443 63.16644829 16.0625 59.375 C15.43931885 58.74053955 14.8161377 58.1060791 14.17407227 57.45239258 C2.96333053 45.90501854 -4.36060987 34.65728186 -4.23388672 18.07958984 C-3.97566893 3.97566893 -3.97566893 3.97566893 0 0 Z " fill="#CCA73D" transform="translate(1363,703)"/>
<path d="M0 0 C3.75037184 1.44069162 3.75037184 1.44069162 4.828125 3.85546875 C7.41251919 18.14142553 7.06868141 31.58850857 -0.796875 44.08203125 C-7.38799896 52.81176458 -15.27504598 61.36646878 -24 68 C-24.66 68 -25.32 68 -26 68 C-26.53250925 48.29715784 -18.45118028 32.11833645 -7.453125 16.32519531 C-3.95178569 11.20255973 -1.66967249 5.99337661 0 0 Z " fill="#CCA73D" transform="translate(1821,703)"/>
<path d="M0 0 C2.05593592 0.03518994 4.11193043 0.06711527 6.16796875 0.09570312 C11.15511892 0.17204832 16.13939594 0.29240279 21.125 0.4375 C20.00362741 5.53064697 17.28378641 7.45114249 13.125 10.4375 C9.97150295 12.36616831 6.73089799 14.07387282 3.4375 15.75 C2.59638672 16.19150391 1.75527344 16.63300781 0.88867188 17.08789062 C-9.20633189 22.31551748 -16.88447465 21.64551418 -27.9765625 19.94921875 C-34.58433363 19.08186603 -41.22194013 18.76583282 -47.875 18.4375 C-44.48223994 10.49220985 -34.79710991 5.37725081 -27.24414062 1.8972168 C-18.71758188 -1.40661297 -8.96798517 -0.26896706 0 0 Z " fill="#CBA63D" transform="translate(1736.875,891.5625)"/>
<path d="M0 0 C5.81662241 -0.07458679 11.63296163 -0.12880761 17.44995117 -0.16479492 C19.42558649 -0.17980956 21.40118889 -0.20022751 23.37670898 -0.22631836 C26.22908695 -0.26302572 29.08102129 -0.27979993 31.93359375 -0.29296875 C32.80584091 -0.30845261 33.67808807 -0.32393646 34.57676697 -0.33988953 C41.26474926 -0.34169322 47.00494691 1.00247346 53 4 C53 4.66 53 5.32 53 6 C53.886875 6.2475 54.77375 6.495 55.6875 6.75 C59.12221969 8.04612064 61.20957115 9.66207313 64 12 C64.99 12.33 65.98 12.66 67 13 C67.495 15.475 67.495 15.475 68 18 C27.4695388 21.84883279 27.4695388 21.84883279 18 16 C16.74604976 15.27646106 15.49070453 14.55533719 14.234375 13.8359375 C1.92334825 6.68556404 1.92334825 6.68556404 0 4 C0 2.68 0 1.36 0 0 Z " fill="#C9A53D" transform="translate(1428,892)"/>
<path d="M0 0 C2.7215359 0.995658 3.79130798 1.57745907 5.09667969 4.22045898 C6.00840869 7.28715928 6.91020226 10.35010799 7.75 13.4375 C8.05784424 14.56099854 8.36568848 15.68449707 8.68286133 16.84204102 C11.76963081 28.85732746 13.92370638 42.44239736 8.21484375 54.04296875 C6.35877005 57.03297815 4.49631516 59.50368484 2 62 C1.34 62 0.68 62 0 62 C0 62.66 0 63.32 0 64 C-0.66 64 -1.32 64 -2 64 C-2 64.66 -2 65.32 -2 66 C-3.98 66.495 -3.98 66.495 -6 67 C-8.01286322 59.62393588 -7.71693192 51.60814845 -8 44 C-8.03544922 43.14615723 -8.07089844 42.29231445 -8.10742188 41.41259766 C-8.65146594 26.92048506 -7.10549079 14.33171551 -1 1 C-0.67 0.67 -0.34 0.34 0 0 Z " fill="#CBA63D" transform="translate(1753,781)"/>
<path d="M0 0 C1.83203125 0.515625 1.83203125 0.515625 4 2 C5.0907045 4.62239465 5.93081721 7.034701 6.6875 9.75 C7.00557617 10.80574219 7.00557617 10.80574219 7.33007812 11.8828125 C9.40431253 18.92343149 10.19333076 25.55447948 10.1875 32.875 C10.1884668 34.15068848 10.1884668 34.15068848 10.18945312 35.45214844 C10.10318794 46.34116723 9.05448627 57.16907984 8 68 C6.68 67.34 5.36 66.68 4 66 C4 65.34 4 64.68 4 64 C3.10474609 63.61714844 3.10474609 63.61714844 2.19140625 63.2265625 C-0.23705122 61.86731893 -1.40471526 60.59422117 -3.0625 58.375 C-3.54847656 57.74335937 -4.03445313 57.11171875 -4.53515625 56.4609375 C-8.13331404 50.41603241 -9.60825061 44.56602731 -9.625 37.5625 C-9.62806152 36.7691626 -9.63112305 35.9758252 -9.63427734 35.15844727 C-9.35515665 25.21548447 -7.25901316 7.25901316 0 0 Z " fill="#CBA63D" transform="translate(1431,781)"/>
<path d="M0 0 C1.04980835 5.33942259 0.85378682 9.68671276 -0.4375 15 C-0.70385254 16.10214844 -0.70385254 16.10214844 -0.97558594 17.2265625 C-4.32675278 29.95334296 -11.17747523 43.37087282 -22.69921875 50.3203125 C-32.73256356 56 -32.73256356 56 -38 56 C-34.18918244 35.16999722 -21.60177511 15.94269064 -6 2 C-3 0 -3 0 0 0 Z " fill="#CCA73D" transform="translate(1713,849)"/>
<path d="M0 0 C6.71285836 0.35482251 9.75876648 4.05889728 14.1171875 8.6953125 C23.82061416 19.56341208 30.78739021 31.40783737 35.10546875 45.3359375 C35.9148489 47.96801649 35.9148489 47.96801649 37.11328125 50.1640625 C38 52 38 52 38 55 C27.93472202 53.7909576 19.03264154 48.28580819 12.7109375 40.45703125 C4.99233083 29.37254815 -1.73928689 14.78670139 -1 1 C-0.67 0.67 -0.34 0.34 0 0 Z " fill="#CCA73D" transform="translate(1473,850)"/>
<path d="M0 0 C1.11375 0.1546875 1.11375 0.1546875 2.25 0.3125 C5.12534644 5.97929684 5.76440421 10.55674404 5.6875 16.875 C5.67920166 17.75687988 5.67090332 18.63875977 5.66235352 19.54736328 C5.26530259 35.07615208 -0.80592317 51.10149446 -11.75 62.3125 C-12.74 61.9825 -13.73 61.6525 -14.75 61.3125 C-15.34085825 50.89041694 -14.38047273 40.83324442 -13 30.5 C-12.84305664 29.27321533 -12.68611328 28.04643066 -12.52441406 26.7824707 C-8.89673693 1.01099283 -8.89673693 1.01099283 0 0 Z " fill="#CBA73D" transform="translate(1404.75,665.6875)"/>
<path d="M0 0 C2.25 -0.3125 2.25 -0.3125 5 0 C12.97351746 7.00703049 13.98987313 20.33742203 15.25 30.1875 C15.50475098 32.09438599 15.50475098 32.09438599 15.76464844 34.03979492 C16.91178659 43.08591408 17.51642865 51.89077237 17 61 C13 61 13 61 11.2890625 59.48828125 C1.43849007 46.60854218 -3.19074944 32.77432839 -3.375 16.6875 C-3.38901855 15.83921631 -3.40303711 14.99093262 -3.41748047 14.11694336 C-3.37564237 8.66779981 -2.47917857 4.85997704 0 0 Z " fill="#CCA73D" transform="translate(1779,666)"/>
<path d="M0 0 C4.70588235 0.70588235 4.70588235 0.70588235 6 2 C6.66177146 9.54419463 4.9140912 16.10915668 2.97265625 23.328125 C1.53921941 28.739493 0.87842917 33.4308542 0.90234375 39.05078125 C0.90446617 40.03899117 0.90446617 40.03899117 0.90663147 41.04716492 C0.912195 43.13565762 0.92474053 45.22404011 0.9375 47.3125 C0.94251972 48.73502449 0.9470818 50.15755066 0.95117188 51.58007812 C0.96215243 55.05342077 0.97939165 58.52669961 1 62 C-2 61 -2 61 -3.97265625 57.61328125 C-4.67959846 56.18475207 -5.37580237 54.75087036 -6.0625 53.3125 C-6.41376953 52.60416016 -6.76503906 51.89582031 -7.12695312 51.16601562 C-12.40608197 40.3582717 -14.11085085 29.26221449 -11.08984375 17.4375 C-8.52413148 10.96959512 -4.94788571 4.94788571 0 0 Z " fill="#CCA73D" transform="translate(1385,664)"/>
<path d="M0 0 C4.86954171 1.43691395 5.96950738 3.29436254 8.45703125 7.5625 C8.90433594 8.408125 9.35164063 9.25375 9.8125 10.125 C10.22886719 10.846875 10.64523437 11.56875 11.07421875 12.3125 C15.47134297 21.19931948 15.24304155 32.36022191 12.89453125 41.82421875 C10.43597814 48.5474465 7.19847439 55.42709193 2.8125 61.125 C2.1525 61.125 1.4925 61.125 0.8125 61.125 C0.82821045 60.39087891 0.8439209 59.65675781 0.86010742 58.90039062 C1.15259203 43.13337227 0.73368895 28.93989928 -3.375 13.6875 C-4.3373956 9.46776543 -4.59337679 5.43862075 -4.1875 1.125 C-3.1875 0.125 -3.1875 0.125 0 0 Z " fill="#CCA73D" transform="translate(1799.1875,664.875)"/>
<path d="M0 0 C0.99 0 1.98 0 3 0 C3 0.66 3 1.32 3 2 C3.66 2 4.32 2 5 2 C5.66 3.98 6.32 5.96 7 8 C7.66 8 8.32 8 9 8 C9.33 9.65 9.66 11.3 10 13 C10.66 13 11.32 13 12 13 C12.33 15.31 12.66 17.62 13 20 C5.74 20 -1.52 20 -9 20 C-9 12.37126066 -4.777893 5.75797361 0 0 Z " fill="#1E3843" transform="translate(1596,732)"/>
<path d="M0 0 C3.42201828 -0.37331109 5.90185629 -0.63763183 8.9375 1.125 C10.50422245 3.88980433 10.38976435 5.88188517 10 9 C8.875 10.875 8.875 10.875 7 12 C3.85075452 12.39365568 1.88090884 12.52854531 -0.875 10.875 C-2.51151479 8.14747535 -2.32502803 6.12026907 -2 3 C-1.34 2.01 -0.68 1.02 0 0 Z " fill="#183443" transform="translate(1681,496)"/>
<path d="M0 0 C1.24007813 0.1546875 2.48015625 0.309375 3.7578125 0.46875 C10.4873186 1.21735154 17.23685226 1.37721251 24 1.60546875 C24.98742188 1.64285156 25.97484375 1.68023438 26.9921875 1.71875 C27.88276855 1.74904297 28.77334961 1.77933594 29.69091797 1.81054688 C32 2 32 2 35 3 C35.33 2.34 35.66 1.68 36 1 C35.67 2.32 35.34 3.64 35 5 C30.47868775 4.88958177 25.95816761 4.75907813 21.4375 4.625 C20.16068359 4.5940625 18.88386719 4.563125 17.56835938 4.53125 C11.40132989 4.3390309 5.81401091 4.15074689 0 2 C0 1.34 0 0.68 0 0 Z " fill="#475242" transform="translate(1427,882)"/>
<path d="M0 0 C0 0.33 0 0.66 0 1 C-0.96292969 0.93039062 -1.92585938 0.86078125 -2.91796875 0.7890625 C-14.81616733 0.2360273 -25.88154552 2.32086574 -37.42260742 4.95361328 C-39.239823 5.36522705 -39.239823 5.36522705 -41.09375 5.78515625 C-42.72860352 6.17006226 -42.72860352 6.17006226 -44.39648438 6.56274414 C-47 7 -47 7 -49 6 C-43.45224016 3.37290613 -38.08526781 1.94369934 -32.0625 0.8125 C-31.14533203 0.63887939 -30.22816406 0.46525879 -29.28320312 0.28637695 C-19.61583606 -1.424223 -9.65550455 -2.24929367 0 0 Z " fill="#7B7340" transform="translate(1545,911)"/>
<path d="M0 0 C11.88 1.98 11.88 1.98 24 4 C24 4.33 24 4.66 24 5 C12.76863917 5.21552718 2.08668839 5.02562659 -9 3 C-9 2.67 -9 2.34 -9 2 C-4.545 1.505 -4.545 1.505 0 1 C0 0.67 0 0.34 0 0 Z " fill="#324542" transform="translate(1507,506)"/>
<path d="M0 0 C0.66 0.33 1.32 0.66 2 1 C-4.93 7.93 -11.86 14.86 -19 22 C-19 16.77665391 -14.50944804 13.58690615 -11 10 C-8.96004681 8.11529989 -6.88836575 6.29367834 -4.76171875 4.5078125 C-3.0881754 3.07546719 -1.53554008 1.57806273 0 0 Z " fill="#B89A3D" transform="translate(1813,765)"/>
<path d="M0 0 C0 0.33 0 0.66 0 1 C-6.93 2.32 -13.86 3.64 -21 5 C-15.03071487 -0.96928513 -7.98309996 -0.25984774 0 0 Z " fill="#97853F" transform="translate(1517,913)"/>
<path d="M0 0 C6.51819877 1.89536276 12.17814801 4.5178994 18 8 C15.41539999 8.97509909 14.36233411 9.15692639 11.78125 8.0390625 C11.0284375 7.57242188 10.275625 7.10578125 9.5 6.625 C6.31279638 4.65370395 6.31279638 4.65370395 2.78125 3.5234375 C1.89953125 3.26433594 1.89953125 3.26433594 1 3 C0.67 2.01 0.34 1.02 0 0 Z " fill="#E8D49E" transform="translate(1464,987)"/>
<path d="M0 0 C0.79148437 -0.02578125 1.58296875 -0.0515625 2.3984375 -0.078125 C5.09524878 0.31929982 5.93229015 1.17506535 7.625 3.25 C6.94953125 3.21519531 6.2740625 3.18039062 5.578125 3.14453125 C4.68609375 3.11746094 3.7940625 3.09039063 2.875 3.0625 C1.99328125 3.02769531 1.1115625 2.99289062 0.203125 2.95703125 C-2.82171583 3.30076316 -4.13083602 4.25227459 -6.375 6.25 C-5.27157757 0.10236073 -5.27157757 0.10236073 0 0 Z " fill="#9E893E" transform="translate(1474.375,924.75)"/>
<path d="M0 0 C0.66 0 1.32 0 2 0 C0.52278578 3.45201639 -1.43794001 5.64961936 -4.125 8.25 C-4.84945313 8.95640625 -5.57390625 9.6628125 -6.3203125 10.390625 C-6.87460938 10.92171875 -7.42890625 11.4528125 -8 12 C-8.66 11.67 -9.32 11.34 -10 11 C-8.38150935 9.16053461 -6.75581169 7.32848583 -5.125 5.5 C-4.66480469 4.97535156 -4.20460938 4.45070313 -3.73046875 3.91015625 C-2.52827924 2.56858245 -1.26754054 1.28000815 0 0 Z " fill="#AA923E" transform="translate(1619,921)"/>
<path d="M0 0 C0 3 0 3 -1.53125 4.75390625 C-2.1809375 5.35074219 -2.830625 5.94757812 -3.5 6.5625 C-4.70186215 7.67136091 -5.87711422 8.81123061 -7 10 C-7 10.66 -7 11.32 -7 12 C-7.99 12 -8.98 12 -10 12 C-9.45912682 8.21388773 -7.88277668 6.44599233 -5 4 C-4.34 4 -3.68 4 -3 4 C-3 3.34 -3 2.68 -3 2 C-2.01 1.34 -1.02 0.68 0 0 Z " fill="#AF943E" transform="translate(1734,873)"/>
<path d="M0 0 C0.99 0.33 1.98 0.66 3 1 C2.34 1 1.68 1 1 1 C0.79375 1.53625 0.5875 2.0725 0.375 2.625 C-1.57996944 6.0017654 -4.18223695 8.30474839 -7 11 C-7.66 10.67 -8.32 10.34 -9 10 C-6.03 6.7 -3.06 3.4 0 0 Z " fill="#A7903E" transform="translate(1422,743)"/>
<path d="M0 0 C-6.4 4.06153846 -6.4 4.06153846 -9.4375 3.75 C-9.953125 3.5025 -10.46875 3.255 -11 3 C-3.53658537 -1.76829268 -3.53658537 -1.76829268 0 0 Z " fill="#364742" transform="translate(1512,621)"/>
<path d="M0 0 C0.515625 0.2475 1.03125 0.495 1.5625 0.75 C-4.8375 4.81153846 -4.8375 4.81153846 -7.875 4.5 C-8.390625 4.2525 -8.90625 4.005 -9.4375 3.75 C-3.0375 -0.31153846 -3.0375 -0.31153846 0 0 Z " fill="#EBDAAB" transform="translate(1709.4375,993.25)"/>
<path d="M0 0 C3 0.3125 3 0.3125 6 1 C6.33 1.66 6.66 2.32 7 3 C5.02 3 3.04 3 1 3 C0.34 4.32 -0.32 5.64 -1 7 C-1.04254356 5.00045254 -1.04080783 2.99958364 -1 1 C-0.67 0.67 -0.34 0.34 0 0 Z " fill="#A38D3E" transform="translate(1473,850)"/>
<path d="M0 0 C3.91211733 1.15585285 6.8745041 2.35534962 10 5 C6.42195344 5.19878036 4.00791911 5.04108797 1 3 C0.67 2.01 0.34 1.02 0 0 Z " fill="#4F5741" transform="translate(1497,900)"/>
<path d="M0 0 C2 0.3125 2 0.3125 4 1 C4.33 1.66 4.66 2.32 5 3 C4.21625 3.103125 3.4325 3.20625 2.625 3.3125 C-0.33045181 3.77595022 -0.33045181 3.77595022 -2 7 C-1.125 1.125 -1.125 1.125 0 0 Z " fill="#9F8A3F" transform="translate(1761,743)"/>
</svg>
